<svg xmlns="http://www.w3.org/2000/svg" width="763.874" height="229.977" viewBox="0 0 763.874 229.977">
  <g id="Grupo_2" data-name="Grupo 2" transform="translate(-867 -892.667)">
    <path id="Path_11" data-name="Path 11" d="M1355.226,465.206v60.828h-17.1v-7.573a24.818,24.818,0,0,1-19.577,8.748,31.777,31.777,0,0,1,0-63.437,24.067,24.067,0,0,1,19.577,8.747v-7.314ZM1337.6,495.491A15.726,15.726,0,1,0,1333,506.679a15.795,15.795,0,0,0,4.606-11.188Z" transform="translate(-202.822 481.559)" fill="#fff"/>
    <path id="Path_13" data-name="Path 13" d="M1129.276,599.7a24.346,24.346,0,1,1,7.056,17.35,24.38,24.38,0,0,1-7.056-17.35Zm39.008,0a6.19,6.19,0,1,0,.014,0Z" transform="translate(238.098 464.706)" fill="#fff"/>
    <path id="Path_14" data-name="Path 14" d="M1240.078,576.162v47.926h-8.67l-17.388-30.051v30.051h-9.669V576.162h8.972l17.11,29.7v-29.7Z" transform="translate(225.524 464.245)" fill="#fff"/>
    <path id="Path_15" data-name="Path 15" d="M1267.356,576.162h9.669v39.369h18.154v8.557h-27.823Z" transform="translate(214.932 464.245)" fill="#fff"/>
    <path id="Path_16" data-name="Path 16" d="M1314.511,576.162h9.669v47.926h-9.669Z" transform="translate(207.018 464.245)" fill="#fff"/>
    <path id="Path_17" data-name="Path 17" d="M1381.78,576.162v47.926h-8.694L1355.7,594.037v30.051h-9.669V576.162H1355l17.11,29.7v-29.7Z" transform="translate(201.728 464.245)" fill="#fff"/>
    <path id="Path_18" data-name="Path 18" d="M1439.714,615.531v8.557h-30.675V576.162h30.05v8.557h-20.382v11.405h17.876v8.694h-17.876v10.727Z" transform="translate(191.159 464.245)" fill="#fff"/>
    <text id="lquileres" transform="translate(1161.119 1006.667)" fill="#fff" font-size="107" font-family="OpenSans-Bold, Open Sans" font-weight="700"><tspan x="0" y="0">lquileres</tspan></text>
    <path id="Path_1" data-name="Path 1" d="M677.113,616.558H648.052a9.752,9.752,0,0,0-9.752,9.752v29.076a9.752,9.752,0,0,0,16.676,6.909l29.076-29.076a9.752,9.752,0,0,0-6.938-16.661Z" transform="translate(365.682 457.464)" fill="#fff" opacity="0.36"/>
    <path id="Path_2" data-name="Path 2" d="M663.2,560.486V438.234a9.752,9.752,0,0,0-9.752-9.752h-9.752V540.967a9.752,9.752,0,0,1-9.752,9.752H590.114a9.752,9.752,0,0,0-9.752,9.752V604.3a9.752,9.752,0,0,1-9.752,9.752H497.323V623.8a9.752,9.752,0,0,0,9.752,9.752h83.048a9.752,9.752,0,0,0,9.752-9.752V579.975a9.752,9.752,0,0,1,9.752-9.752h43.826a9.752,9.752,0,0,0,9.743-9.737Z" transform="translate(389.376 489.039)" fill="#fff" opacity="0.36"/>
    <path id="Path_3" data-name="Path 3" d="M502.956,424.511H639.728v-9.752a9.752,9.752,0,0,0-9.752-9.752H483.452a9.752,9.752,0,0,0-9.752,9.752l.122,185.62a9.752,9.752,0,0,0,9.752,9.752h9.752l-.117-175.844a9.752,9.752,0,0,1,9.747-9.776Z" transform="translate(393.3 492.991)" fill="#fff" opacity="0.54"/>
    <path id="Path_4" data-name="Path 4" d="M580.357,604.327V560.5a9.752,9.752,0,0,1,9.752-9.752h43.826A9.752,9.752,0,0,0,643.686,541V428.478H506.914a9.752,9.752,0,0,0-9.752,9.752l.117,175.844h73.287a9.753,9.753,0,0,0,9.791-9.747Z" transform="translate(389.317 489.024)" fill="#fff"/>
  </g>
</svg>
