<svg xmlns="http://www.w3.org/2000/svg" width="764.31" height="217.977" viewBox="0 0 764.31 217.977">
  <g id="Grupo_1" data-name="Grupo 1" transform="translate(-205.445 -912.023)">
    <path id="Path_1" data-name="Path 1" d="M674.967,616.558H647.513a9.213,9.213,0,0,0-9.213,9.213v27.468a9.213,9.213,0,0,0,15.754,6.527L681.522,632.3a9.213,9.213,0,0,0-6.555-15.74Z" transform="translate(-303.448 467.508)" fill="#3ee5c9"/>
    <path id="Path_2" data-name="Path 2" d="M654.023,553.186V437.695a9.213,9.213,0,0,0-9.213-9.213H635.6V534.747a9.213,9.213,0,0,1-9.213,9.213h-41.4a9.213,9.213,0,0,0-9.213,9.213v41.4a9.213,9.213,0,0,1-9.213,9.213H497.323V613a9.213,9.213,0,0,0,9.213,9.213h78.456A9.213,9.213,0,0,0,594.2,613V571.6a9.213,9.213,0,0,1,9.213-9.213h41.4a9.213,9.213,0,0,0,9.2-9.2Z" transform="translate(-273.268 507.738)" fill="#3ee5c9"/>
    <path id="Path_3" data-name="Path 3" d="M501.338,423.433H630.548V414.22a9.213,9.213,0,0,0-9.213-9.213H482.913a9.213,9.213,0,0,0-9.213,9.213l.115,175.356a9.213,9.213,0,0,0,9.213,9.213h9.213l-.11-166.12a9.213,9.213,0,0,1,9.208-9.236Z" transform="translate(-268.255 512.769)" fill="#00d8ff"/>
    <path id="Path_4" data-name="Path 4" d="M575.756,594.6V553.2a9.213,9.213,0,0,1,9.213-9.213h41.4a9.213,9.213,0,0,0,9.213-9.213v-106.3H506.375a9.213,9.213,0,0,0-9.213,9.213l.111,166.12h69.234a9.213,9.213,0,0,0,9.25-9.208Z" transform="translate(-273.315 507.724)" fill="#0068ff"/>
    <path id="Path_11" data-name="Path 11" d="M1351.547,465.126v57.465h-16.155v-7.154A23.447,23.447,0,0,1,1316.9,523.7a30.02,30.02,0,0,1,0-59.929,22.736,22.736,0,0,1,18.495,8.264v-6.909Zm-16.647,28.61a14.857,14.857,0,1,0-4.352,10.569,14.921,14.921,0,0,0,4.352-10.569Z" transform="translate(-833.805 498.721)" fill="#0068ff"/>
    <path id="Path_13" data-name="Path 13" d="M1129.276,598.362a23,23,0,1,1,6.665,16.391,23.032,23.032,0,0,1-6.665-16.391Zm36.851,0a5.848,5.848,0,1,0,.013,0Z" transform="translate(-408.45 476.621)" fill="#00d8ff"/>
    <path id="Path_14" data-name="Path 14" d="M1238.1,576.162v45.276h-8.19l-16.427-28.389v28.389h-9.135V576.162h8.476l16.164,28.058V576.162Z" transform="translate(-424.48 476.148)" fill="#00d8ff"/>
    <path id="Path_15" data-name="Path 15" d="M1267.356,576.162h9.135v37.192h17.15v8.084h-26.284Z" transform="translate(-437.971 476.148)" fill="#00d8ff"/>
    <path id="Path_16" data-name="Path 16" d="M1314.511,576.162h9.135v45.276h-9.135Z" transform="translate(-448.054 476.148)" fill="#00d8ff"/>
    <path id="Path_17" data-name="Path 17" d="M1379.8,576.162v45.276h-8.213l-16.426-28.389v28.389h-9.135V576.162h8.475l16.164,28.058V576.162Z" transform="translate(-454.795 476.148)" fill="#00d8ff"/>
    <path id="Path_18" data-name="Path 18" d="M1438.018,613.354v8.084h-28.979V576.162h28.389v8.084h-19.255v10.774h16.887v8.213h-16.887v10.134Z" transform="translate(-468.263 476.148)" fill="#00d8ff"/>
    <text id="lquileres" transform="translate(525 1021.023)" fill="#1268fb" font-size="102" font-family="OpenSans-Bold, Open Sans" font-weight="700"><tspan x="0" y="0">lquileres</tspan></text>
  </g>
</svg>
